<svg version="1.2" xmlns="http://www.w3.org/2000/svg" viewBox="0 0 60 60" width="60" height="60">
	<title>dermatologia-svg</title>
	<style>
		.s0 { fill: #ffffff } 
	</style>
	<path fill-rule="evenodd" class="s0" d="m2.1 35.1q-0.5-0.7-0.9-1.4-0.4-0.8-0.6-1.5-0.3-0.8-0.5-1.7-0.1-0.8-0.1-1.6v-10.9q0-1.5 0.5-2.8 0.5-1.4 1.5-2.5 1-1.1 2.3-1.8 1.3-0.7 2.7-0.8v-3.9q0-1 0.3-1.9 0.4-0.9 1-1.6 0.6-0.7 1.4-1.1 0.9-0.5 1.8-0.6 0.5 0 1.1 0 0.5 0.1 1 0.3 0.5 0.1 0.9 0.4 0.5 0.2 0.9 0.6 0.1 0.1 0.2 0.3 0.1-0.2 0.2-0.4 0.2-0.2 0.3-0.3 0.1-0.2 0.3-0.3 0.1-0.2 0.2-0.3c0.6-0.6 1.4-0.9 2.2-1.1 0.8-0.3 1.6-0.3 2.4-0.1 0.8 0.2 1.5 0.6 2.1 1.2 0.6 0.5 1.1 1.2 1.4 2 0.6-0.6 1.3-1 2.1-1.2 0.8-0.2 1.6-0.2 2.4 0 0.8 0.2 1.5 0.6 2.1 1.2 0.6 0.5 1.1 1.2 1.4 2q0.3-0.4 0.8-0.6 0.4-0.3 0.9-0.4 0.5-0.2 1-0.3 0.6 0 1.1 0 0.9 0.1 1.8 0.6 0.8 0.4 1.4 1.1 0.6 0.7 1 1.6 0.3 0.9 0.3 1.9v5c3.1 1.1 5.8 2.9 8.1 5.2 2.2 2.3 3.9 5.1 4.9 8.2 1 3.1 1.2 6.4 0.8 9.6-0.5 3.2-1.8 6.2-3.6 8.9l8 8q0.4 0.4 0.6 0.9 0.2 0.5 0.2 1 0 0.6-0.2 1.1-0.2 0.5-0.6 0.9l-1.2 1.2q-0.4 0.4-0.9 0.6-0.5 0.2-1 0.2-0.6 0-1.1-0.2-0.5-0.2-0.9-0.6l-8-8q-1 0.7-2.1 1.3-1.1 0.5-2.2 1-1.2 0.5-2.4 0.8-1.2 0.3-2.4 0.5v2.2q0 0.6-0.2 1.1-0.3 0.6-0.7 1-0.4 0.4-1 0.7-0.5 0.2-1.1 0.2h-20q-0.6 0-1.1-0.2-0.6-0.3-1-0.7-0.4-0.4-0.7-1-0.2-0.5-0.2-1.1v-7.9q0-0.7-0.1-1.3-0.1-0.7-0.3-1.3-0.3-0.6-0.6-1.2-0.3-0.6-0.7-1.1zm55.8 21.2q0.1-0.1 0.1-0.3 0-0.1-0.1-0.2-0.1-0.2-0.2-0.3l-5.1-5.1-2.3 2.2 5.2 5.2q0.1 0.1 0.2 0.1 0.2 0.1 0.3 0.1 0.2 0 0.3-0.1 0.1 0 0.2-0.1l1.3-1.2q0-0.1 0.1-0.3zm-6.4-29.6c-0.9-2.3-2.3-4.4-4.1-6.1-1.8-1.8-3.9-3.2-6.2-4.2-2.3-0.9-4.7-1.4-7.2-1.4-7.7 0-14.7 4.6-17.6 11.7-2.9 7.1-1.3 15.3 4.1 20.7 5.5 5.5 13.6 7.1 20.7 4.2 7.1-3 11.8-9.9 11.8-17.6 0-2.5-0.5-5-1.5-7.3zm-1.6 21q-0.3 0.3-0.6 0.6-0.2 0.2-0.5 0.5-0.3 0.3-0.6 0.6-0.3 0.3-0.6 0.5l1.3 1.3 2.3-2.2zm-47.9-18.8q0 0.7 0.1 1.3 0.1 0.7 0.3 1.3 0.2 0.6 0.5 1.2 0.4 0.6 0.8 1.1l7.1 9.1q0.5 0.7 0.9 1.4 0.4 0.8 0.7 1.5 0.3 0.8 0.4 1.7 0.2 0.8 0.2 1.6v7.9q0 0.2 0 0.4 0.1 0.2 0.3 0.3 0.1 0.2 0.3 0.2 0.2 0.1 0.4 0.1h20q0.2 0 0.3-0.1 0.2 0 0.4-0.2 0.1-0.1 0.2-0.3 0.1-0.2 0.1-0.4v-2q-0.5 0-1 0c-6 0-11.8-2.6-15.7-7.1-4-4.5-5.9-10.4-5.2-16.4 0.7-6 4-11.3 8.9-14.8 5-3.4 11.1-4.5 17-3.1v-4.4q0-0.6-0.2-1.1-0.2-0.6-0.6-1-0.4-0.5-0.9-0.7-0.5-0.3-1-0.4-0.4 0-0.7 0-0.3 0.1-0.6 0.2-0.3 0.1-0.5 0.2-0.3 0.2-0.5 0.4-0.3 0.2-0.5 0.4-0.1 0.3-0.3 0.6-0.1 0.3-0.2 0.6 0 0.3 0 0.6 0 0.4-0.3 0.7-0.3 0.3-0.7 0.3-0.4 0-0.7-0.3-0.3-0.3-0.3-0.7v-1.8q0-0.6-0.2-1.1-0.2-0.6-0.6-1-0.4-0.5-0.9-0.7-0.5-0.3-1-0.4-0.4 0-0.7 0-0.3 0.1-0.6 0.2-0.3 0.1-0.5 0.2-0.3 0.2-0.5 0.4-0.3 0.2-0.5 0.4-0.1 0.3-0.3 0.6-0.1 0.3-0.2 0.6 0 0.3 0 0.6 0 0.4-0.3 0.7-0.3 0.3-0.7 0.3-0.4 0-0.7-0.3-0.3-0.3-0.3-0.7v-1.8q0-0.6-0.2-1.1-0.2-0.6-0.6-1-0.4-0.5-0.9-0.7-0.5-0.3-1-0.4-0.7 0-1.3 0.2-0.6 0.2-1 0.6-0.5 0.4-0.8 1-0.2 0.6-0.2 1.2v1q0 0.4-0.3 0.7-0.3 0.3-0.7 0.3-0.4 0-0.7-0.3-0.3-0.3-0.3-0.7 0-0.3-0.1-0.6-0.1-0.3-0.2-0.6-0.1-0.3-0.3-0.6-0.2-0.2-0.4-0.4-0.3-0.2-0.5-0.4-0.3-0.1-0.6-0.2-0.3-0.1-0.6-0.2-0.3 0-0.6 0-0.6 0.1-1.1 0.4-0.5 0.2-0.9 0.7-0.4 0.4-0.6 1-0.1 0.5-0.1 1.1v19.8q0 0.4-0.3 0.7-0.3 0.3-0.7 0.3-0.4 0-0.7-0.3-0.3-0.3-0.3-0.7v-13.9q-1.1 0.2-2 0.7-0.9 0.5-1.6 1.3-0.7 0.8-1.1 1.8-0.3 1-0.3 2.1z"/>
	<path fill-rule="evenodd" class="s0" d="m18.3 27.5c0.9-2.1 2.1-3.9 3.7-5.5 1.6-1.6 3.4-2.8 5.5-3.7 2.1-0.9 4.3-1.3 6.5-1.3q0.4 0 0.7 0.3 0.3 0.3 0.3 0.7 0 0.4-0.3 0.7-0.3 0.3-0.7 0.3c-4 0-7.8 1.6-10.6 4.4-2.8 2.8-4.4 6.6-4.4 10.6 0 4 1.6 7.8 4.4 10.6 2.8 2.8 6.6 4.4 10.6 4.4q0.5 0 1-0.1v-5.2q0-0.5 0.1-0.9 0-0.5 0.1-1 0.1-0.4 0.2-0.9 0.2-0.4 0.4-0.9l2.6-5.9q0.1-0.3 0.3-0.6 0.1-0.4 0.2-0.7 0-0.4 0.1-0.8 0-0.3 0-0.7v-11.4q-0.6-0.3-1.3-0.4-0.3-0.1-0.5-0.5-0.2-0.3-0.1-0.7 0.1-0.4 0.4-0.6 0.4-0.2 0.8-0.2c6.2 1.7 11 6.7 12.4 13.1 1.3 6.3-1.2 12.9-6.3 16.8-5.1 4-12.1 4.7-17.9 1.9-5.8-2.9-9.5-8.8-9.5-15.3 0-2.2 0.4-4.4 1.3-6.5zm18.7 21.2c3-0.6 5.8-2.2 7.9-4.4 2.1-2.3 3.5-5.1 3.9-8.2 0.5-3 0-6.2-1.4-8.9-1.4-2.8-3.7-5-6.4-6.5v10.6q0 0.5-0.1 0.9 0 0.5-0.1 1-0.1 0.4-0.2 0.9-0.2 0.4-0.4 0.9l-2.6 5.9q-0.1 0.3-0.3 0.6-0.1 0.4-0.2 0.7 0 0.4-0.1 0.8 0 0.3 0 0.7z"/>
	<path class="s0" d="m32 42q-0.2 0-0.4 0.1-0.2 0.1-0.3 0.2-0.1 0.1-0.2 0.3-0.1 0.2-0.1 0.4v1q0 0.4 0.3 0.7 0.3 0.3 0.7 0.3 0.4 0 0.7-0.3 0.3-0.3 0.3-0.7v-1q0-0.2-0.1-0.4-0.1-0.2-0.2-0.3-0.1-0.1-0.3-0.2-0.2-0.1-0.4-0.1z"/>
	<path class="s0" d="m33 38q0-0.4-0.3-0.7-0.3-0.3-0.7-0.3-0.4 0-0.7 0.3-0.3 0.3-0.3 0.7v1q0 0.4 0.3 0.7 0.3 0.3 0.7 0.3 0.4 0 0.7-0.3 0.3-0.3 0.3-0.7z"/>
	<path class="s0" d="m33 33q0-0.4-0.3-0.7-0.3-0.3-0.7-0.3-0.4 0-0.7 0.3-0.3 0.3-0.3 0.7v1q0 0.4 0.3 0.7 0.3 0.3 0.7 0.3 0.4 0 0.7-0.3 0.3-0.3 0.3-0.7z"/>
	<path class="s0" d="m33 28q0-0.4-0.3-0.7-0.3-0.3-0.7-0.3-0.4 0-0.7 0.3-0.3 0.3-0.3 0.7v1q0 0.4 0.3 0.7 0.3 0.3 0.7 0.3 0.4 0 0.7-0.3 0.3-0.3 0.3-0.7z"/>
	<path class="s0" d="m33 23q0-0.4-0.3-0.7-0.3-0.3-0.7-0.3-0.4 0-0.7 0.3-0.3 0.3-0.3 0.7v1q0 0.4 0.3 0.7 0.3 0.3 0.7 0.3 0.4 0 0.7-0.3 0.3-0.3 0.3-0.7z"/>
	<path class="s0" d="m36 31q-0.2 0-0.4 0.1-0.2 0.1-0.3 0.2-0.1 0.1-0.2 0.3-0.1 0.2-0.1 0.4v1q0 0.4 0.3 0.7 0.3 0.3 0.7 0.3 0.4 0 0.7-0.3 0.3-0.3 0.3-0.7v-1q0-0.2-0.1-0.4-0.1-0.2-0.2-0.3-0.1-0.1-0.3-0.2-0.2-0.1-0.4-0.1z"/>
	<path class="s0" d="m37 27q0-0.4-0.3-0.7-0.3-0.3-0.7-0.3-0.4 0-0.7 0.3-0.3 0.3-0.3 0.7v1q0 0.4 0.3 0.7 0.3 0.3 0.7 0.3 0.4 0 0.7-0.3 0.3-0.3 0.3-0.7z"/>
	<path class="s0" d="m35 23q0 0.4 0.3 0.7 0.3 0.3 0.7 0.3 0.4 0 0.7-0.3 0.3-0.3 0.3-0.7v-1q0-0.4-0.3-0.7-0.3-0.3-0.7-0.3-0.4 0-0.7 0.3-0.3 0.3-0.3 0.7z"/>
	<path class="s0" d="m29 35q0-0.4-0.3-0.7-0.3-0.3-0.7-0.3-0.4 0-0.7 0.3-0.3 0.3-0.3 0.7v1q0 0.4 0.3 0.7 0.3 0.3 0.7 0.3 0.4 0 0.7-0.3 0.3-0.3 0.3-0.7z"/>
	<path class="s0" d="m28 39q-0.2 0-0.4 0.1-0.2 0.1-0.3 0.2-0.1 0.1-0.2 0.3-0.1 0.2-0.1 0.4v1q0 0.4 0.3 0.7 0.3 0.3 0.7 0.3 0.4 0 0.7-0.3 0.3-0.3 0.3-0.7v-1q0-0.2-0.1-0.4-0.1-0.2-0.2-0.3-0.1-0.1-0.3-0.2-0.2-0.1-0.4-0.1z"/>
	<path class="s0" d="m29 30q0-0.4-0.3-0.7-0.3-0.3-0.7-0.3-0.4 0-0.7 0.3-0.3 0.3-0.3 0.7v1q0 0.4 0.3 0.7 0.3 0.3 0.7 0.3 0.4 0 0.7-0.3 0.3-0.3 0.3-0.7z"/>
	<path class="s0" d="m25 34q0-0.4-0.3-0.7-0.3-0.3-0.7-0.3-0.4 0-0.7 0.3-0.3 0.3-0.3 0.7v1q0 0.4 0.3 0.7 0.3 0.3 0.7 0.3 0.4 0 0.7-0.3 0.3-0.3 0.3-0.7z"/>
	<path class="s0" d="m24 38q-0.2 0-0.4 0.1-0.2 0.1-0.3 0.2-0.1 0.1-0.2 0.3-0.1 0.2-0.1 0.4v1q0 0.4 0.3 0.7 0.3 0.3 0.7 0.3 0.4 0 0.7-0.3 0.3-0.3 0.3-0.7v-1q0-0.2-0.1-0.4-0.1-0.2-0.2-0.3-0.1-0.1-0.3-0.2-0.2-0.1-0.4-0.1z"/>
	<path class="s0" d="m25 29q0-0.4-0.3-0.7-0.3-0.3-0.7-0.3-0.4 0-0.7 0.3-0.3 0.3-0.3 0.7v1q0 0.4 0.3 0.7 0.3 0.3 0.7 0.3 0.4 0 0.7-0.3 0.3-0.3 0.3-0.7z"/>
	<path class="s0" d="m29 25q0-0.4-0.3-0.7-0.3-0.3-0.7-0.3-0.4 0-0.7 0.3-0.3 0.3-0.3 0.7v1q0 0.4 0.3 0.7 0.3 0.3 0.7 0.3 0.4 0 0.7-0.3 0.3-0.3 0.3-0.7z"/>
</svg>