<svg version="1.2" xmlns="http://www.w3.org/2000/svg" viewBox="0 0 450 450" width="450" height="450">
	<title>gastro-svg</title>
	<style>
		.s0 { fill: #ffffff } 
	</style>
	<path class="s0" d="m73.6 446.7h-48.8c-2.8 0-5-2.2-5-5v-95.1c0-0.1 0-0.1 0-0.2 0.8-22.9 7.3-38.8 19.9-48.8 23.7-18.7 62.3-11 99.7-3.5 27.6 5.5 53.7 10.7 67 3.2 23.5-13.2 41.1-42.6 43.7-73.2 2.8-31.9-10.3-61.5-36.9-83.2-31.7-23.4-30.1-71.6-28.8-110.3 0.2-7.4 0.5-14.4 0.5-20.9 0-2.8 2.2-5 5-5 2.8 0 5 2.2 5 5 0 6.7-0.2 13.8-0.5 21.3-1.2 36.4-2.7 81.7 24.8 102 0.1 0 0.1 0.1 0.2 0.2 29.3 23.9 43.7 56.5 40.6 91.9-3 34.3-22.1 66.1-48.8 81.1-16.6 9.3-44.4 3.7-73.9-2.2-33.5-6.7-71.5-14.3-91.5 1.6-10.1 8-15.4 21.5-16.1 41.2v90.1h38.9v-43.9c0-0.1 0-0.1 0-0.2 0.9-21 5.1-32.4 13.1-35.8 5.8-2.5 11.5 0.5 13.9 2.7q0.1 0.2 0.3 0.3c37.5 38.5 79.2 50.5 107.6 53.9 30.7 3.6 52.6-1.8 52.8-1.9 0.3-0.1 0.5-0.1 0.8-0.1 58.8-5.4 102.7-26.3 130.3-62.1 43-55.7 32.3-129.7 31.7-133.8-22.7-91.9-78-97.5-128-95.6-18 0.7-32.1-3.8-41.9-13.5-18.9-18.6-18.2-51.4-17.5-80.4 0.1-4.9 0.2-9.6 0.2-14 0-2.8 2.2-5 5-5 2.8 0 5 2.2 5 5 0 4.5-0.1 9.2-0.2 14.2-0.6 26.9-1.3 57.5 14.5 73.1 7.8 7.7 19.1 11.2 34.5 10.6 26.5-1 54.4-0.1 79.2 13.5 28.5 15.6 47.8 45 58.9 89.9 0 0.1 0.1 0.2 0.1 0.4 0.1 0.8 3.4 20.5 0.9 47.9-2.3 25.3-10.1 62.1-34.5 93.8-29.4 38.1-75.4 60.3-137 65.9-3.4 0.8-25.5 5.6-56.1 2-29.9-3.5-73.9-16.2-113.4-56.6-0.4-0.3-2.1-1.5-3.3-0.9-0.6 0.3-5.9 3.3-6.9 26.9v48.7c0 2.6-2.2 4.8-5 4.8z"/>
	<path fill-rule="evenodd" class="s0" d="m281.6 313.7c-9.7 0-17.6-7.9-17.6-17.6 0-9.7 7.9-17.6 17.6-17.6 9.7 0 17.6 7.9 17.6 17.6 0 9.7-7.9 17.6-17.6 17.6zm0-25.3c-4.2 0-7.6 3.4-7.6 7.6 0 4.2 3.4 7.6 7.6 7.6 4.2 0 7.6-3.4 7.6-7.6 0-4.2-3.4-7.6-7.6-7.6z"/>
	<path fill-rule="evenodd" class="s0" d="m329.7 186.7c-9.7 0-17.6-7.9-17.6-17.6 0-9.7 7.9-17.6 17.6-17.6 9.7 0 17.6 7.9 17.6 17.6 0 9.7-7.9 17.6-17.6 17.6zm0-25.2c-4.2 0-7.6 3.4-7.6 7.6 0 4.2 3.4 7.6 7.6 7.6 4.2 0 7.6-3.4 7.6-7.6 0-4.2-3.4-7.6-7.6-7.6z"/>
	<path fill-rule="evenodd" class="s0" d="m370.7 223.7c-9.7 0-17.6-7.9-17.6-17.6 0-9.7 7.9-17.6 17.6-17.6 9.7 0 17.6 7.9 17.6 17.6 0 9.7-7.9 17.6-17.6 17.6zm0-25.2c-4.2 0-7.6 3.4-7.6 7.6 0 4.2 3.4 7.6 7.6 7.6 4.2 0 7.6-3.4 7.6-7.6 0-4.2-3.4-7.6-7.6-7.6z"/>
	<path fill-rule="evenodd" class="s0" d="m330.5 284.5c-9.7 0-17.6-7.9-17.6-17.6 0-9.7 7.9-17.6 17.6-17.6 9.7 0 17.6 7.9 17.6 17.6 0.1 9.7-7.8 17.6-17.6 17.6zm0-25.2c-4.2 0-7.6 3.4-7.6 7.6 0 4.2 3.4 7.6 7.6 7.6 4.2 0 7.6-3.4 7.6-7.6 0-4.2-3.4-7.6-7.6-7.6z"/>
	<path fill-rule="evenodd" class="s0" d="m394.3 285.4c-9.7 0-17.6-7.9-17.6-17.6 0-9.7 7.9-17.6 17.6-17.6 9.7 0 17.6 7.9 17.6 17.6 0 9.7-7.9 17.6-17.6 17.6zm0-25.3c-4.2 0-7.6 3.4-7.6 7.6 0 4.2 3.4 7.6 7.6 7.6 4.2 0 7.6-3.4 7.6-7.6 0-4.2-3.4-7.6-7.6-7.6z"/>
	<path fill-rule="evenodd" class="s0" d="m355.5 350.9c-9.7 0-17.6-7.9-17.6-17.6 0-9.7 7.9-17.6 17.6-17.6 9.7 0 17.6 7.9 17.6 17.6 0 9.7-7.9 17.6-17.6 17.6zm0-25.2c-4.2 0-7.6 3.4-7.6 7.6 0 4.2 3.4 7.6 7.6 7.6 4.2 0 7.6-3.4 7.6-7.6 0-4.2-3.4-7.6-7.6-7.6z"/>
	<path class="s0" d="m323.4 389.9c-11 0-21.7-0.7-31.5-2.7-24.1-4.9-39.4-17.2-45.4-36.4-4.3-13.7-17.9-28.8-40.5-44.9-2.3-1.6-2.8-4.7-1.2-7 1.6-2.3 4.7-2.8 7-1.2 24.4 17.4 39.3 34.2 44.3 50.1 11 35.3 59 34.1 103 30.2 2.8-0.3 5.2 1.8 5.4 4.5 0.2 2.7-1.8 5.2-4.5 5.4-12.2 1.1-24.6 2-36.6 2z"/>
	<path fill-rule="evenodd" class="s0" d="m156.5 273.6c-15.2 0-27.6-12.4-27.6-27.6v-17.3h-17.3c-15.2 0-27.6-12.4-27.6-27.6 0-15.2 12.4-27.6 27.6-27.6h17.3v-17.3c0-15.2 12.4-27.6 27.6-27.6 15.2 0 27.6 12.4 27.6 27.6v17.3h17.3c15.2 0 27.6 12.4 27.6 27.6 0 15.2-12.4 27.6-27.6 27.6h-17.3v17.3c0 15.2-12.4 27.6-27.6 27.6zm-44.9-90c-9.7 0-17.6 7.9-17.6 17.6 0 9.7 7.9 17.6 17.6 17.6h22.3c2.8 0 5 2.2 5 5v22.2c0 9.7 7.9 17.6 17.6 17.6 9.7 0 17.6-7.9 17.6-17.6v-22.3c0-2.8 2.2-5 5-5h22.3c9.7 0 17.6-7.9 17.6-17.6 0-9.7-7.9-17.6-17.6-17.6h-22.3c-2.8 0-5-2.2-5-5v-22.3c0-9.7-7.9-17.6-17.6-17.6-9.7 0-17.6 7.9-17.6 17.6v22.3c0 2.8-2.2 5-5 5h-22.3z"/>
</svg>