<svg version="1.2" xmlns="http://www.w3.org/2000/svg" viewBox="0 0 60 60" width="60" height="60">
	<title>ginecologia-svg</title>
	<style>
		.s0 { fill: #ffffff } 
	</style>
	<path fill-rule="evenodd" class="s0" d="m54 10.7c-0.1-0.4-0.5-0.7-1-0.7h-9.2c-1 0-1.8 0.8-2 1.8-0.6 4.6-1.6 7.4-3.1 9.1-0.8 0.9-1.2 2.2-1 3.5q0.2 1.7 0.3 4.2 1.9-0.6 4-0.6c7.7 0 14 6.3 14 14 0 2.6-0.7 5-1.9 7l4.9 4.9c1.3 1.4 1.3 3.7 0 5.1-0.7 0.6-1.6 1-2.6 1-0.9 0-1.8-0.4-2.5-1l-4.9-4.9c-2 1.2-4.4 1.9-7 1.9-4.3 0-8.1-1.9-10.7-5h-3.3c-2.2 0-4-1.8-4-4v-3c0-1.6-0.4-3.1-0.8-4.8-0.5-2.4-1.2-5.1-1.2-9.2q0-3.4 0.3-5.6c0.2-1.3-0.2-2.6-1-3.5-1.5-1.7-2.5-4.5-3.1-9.1-0.2-1-1-1.8-2-1.8h-9.2c-0.5 0-0.9 0.3-1 0.7-0.1 0.4 0.1 0.9 0.5 1 1.4 0.6 3.8 1.3 7.5 1.3 1.7 0 3 1.3 3 3 0 1.7-1.3 3-3 3-4.7 0-7.9-1-9.8-1.7-2.6-1.1-4.2-3.6-4.2-6.4 0-3.8 3.1-6.9 6.9-6.9h9.3c2.7 0 4.2-0.8 6-1.8l0.1-0.1c1.7-0.9 3.8-2.1 7.7-2.1 3.9 0 6 1.2 7.9 2.2 1.7 1 3.2 1.8 5.9 1.8h9.3c3.8 0 6.9 3.1 6.9 6.9 0 2.8-1.6 5.3-4.2 6.4-1.9 0.7-5.1 1.7-9.8 1.7-1.7 0-3-1.3-3-3 0-1.7 1.3-3 3-3 3.7 0 6.1-0.7 7.5-1.3 0.4-0.1 0.6-0.6 0.5-1zm0.2 2.9c-1.1 0.5-2.9 1-5.4 1.3q0.2 0.5 0.2 1.1 0 0.5-0.1 0.9c2.8-0.3 4.8-0.9 6.1-1.5 1.8-0.8 3-2.5 3-4.5 0-2.7-2.2-4.9-4.9-4.9h-9.3c-3.2 0-5.1-1-6.9-2-1.8-1-3.6-2-6.9-2-3.3 0-5.1 1-6.7 1.9l-0.2 0.1c-1.8 1-3.6 2-6.9 2h-9.3c-2.7 0-4.9 2.2-4.9 4.9 0 2 1.2 3.7 3 4.5 1.3 0.6 3.3 1.2 6.1 1.5q-0.1-0.4-0.1-0.9 0-0.6 0.2-1.1c-2.5-0.3-4.3-0.8-5.4-1.3-1.4-0.6-2.1-2-1.7-3.4 0.3-1.3 1.5-2.2 2.9-2.2h9.2c2 0 3.7 1.5 4 3.5 0.6 4.2 1.4 6.7 2.6 8 1.2 1.4 1.8 3.3 1.5 5.1q-0.3 2.1-0.3 5.4c0 3.9 0.6 6.5 1.2 8.8 0.4 1.7 0.8 3.4 0.8 5.2v3c0 1.1 0.9 2 2 2h1.9c-1.2-2.1-1.9-4.4-1.9-7 0-5.6 3.3-10.4 8-12.6 0-1.9-0.1-3.5-0.3-4.8-0.3-1.8 0.3-3.7 1.5-5.1 1.2-1.3 2-3.8 2.6-8 0.3-2 2-3.5 4-3.5h9.2c1.4 0 2.6 0.9 2.9 2.2 0.4 1.4-0.3 2.8-1.7 3.4zm-40.2 1.4c-0.6 0-1 0.4-1 1 0 0.6 0.4 1 1 1 0.6 0 1-0.4 1-1 0-0.6-0.4-1-1-1zm38.9 35.7q-0.9 1.3-2.2 2.2l4.6 4.6c0.6 0.6 1.7 0.6 2.2 0 0.7-0.6 0.7-1.6 0-2.2zm-10.9-20.7c-6.6 0-12 5.4-12 12 0 6.6 5.4 12 12 12 6.6 0 12-5.4 12-12 0-6.6-5.4-12-12-12zm4-13c0.6 0 1-0.4 1-1 0-0.5-0.4-1-1-1-0.5 0-1 0.5-1 1 0 0.6 0.5 1 1 1z"/>
	<path fill-rule="evenodd" class="s0" d="m37.9 11.2c-0.6 3.7-1.3 6-2.2 7-1.6 1.8-2.3 4.3-2 6.7q0.1 0.8 0.2 1.9c0.1 1.1-0.3 2.2-1 3-0.8 0.8-1.8 1.2-2.9 1.2h-0.1c-1 0-2-0.4-2.8-1.2-0.7-0.8-1.1-1.8-1-2.9q0-1.1 0.2-2c0.3-2.4-0.4-4.9-2-6.7-0.9-1-1.6-3.3-2.2-6.9-0.3-2.9 1.1-5.5 3.5-6.4 3-1.2 5.7-1.2 8.6-0.1 2.5 0.9 4.1 3.6 3.7 6.4zm-4.4-4.5q-1.8-0.7-3.5-0.7c-1.1 0-2.3 0.2-3.6 0.7-1.6 0.7-2.5 2.4-2.3 4.2 0.6 4.4 1.4 5.6 1.7 6 2 2.2 2.9 5.3 2.4 8.3q-0.1 0.8-0.1 1.8c-0.1 0.6 0.1 1 0.5 1.4 0.3 0.4 0.8 0.6 1.3 0.6h0.1c0.5 0 1-0.2 1.4-0.6 0.4-0.4 0.6-0.9 0.5-1.4q0-1.1-0.2-1.8c-0.4-3 0.5-6.1 2.5-8.3 0.3-0.4 1.1-1.6 1.7-5.9 0.2-2-0.8-3.7-2.4-4.3z"/>
	<path class="s0" d="m35 39q0.4 0 0.7-0.3l3-3c0.4-0.4 0.4-1 0-1.4-0.4-0.4-1-0.4-1.4 0l-3 3c-0.4 0.4-0.4 1 0 1.4q0.3 0.3 0.7 0.3z"/>
	<path class="s0" d="m35.3 43.7q0.3 0.3 0.7 0.3 0.4 0 0.7-0.3l8-8c0.4-0.4 0.4-1 0-1.4-0.4-0.4-1-0.4-1.4 0l-8 8c-0.4 0.4-0.4 1 0 1.4z"/>
</svg>