<svg version="1.2" xmlns="http://www.w3.org/2000/svg" viewBox="0 0 100 100" width="100" height="100">
	<title>interna-svg</title>
	<style>
		.s0 { fill: #ffffff } 
	</style>
	<g id="Layer_35">
		<g>
			<g>
				<path fill-rule="evenodd" class="s0" d="m84.4 83.5v10c0 0.8-0.7 1.5-1.5 1.5h-65.7c-0.8 0-1.5-0.7-1.5-1.5v-10c0-13.1 7.9-17.4 13.8-19.5l10.9-3.8v-4.7c-5.4-2.9-9.3-8.2-10.4-14.4h-1.6c-3.7 0-6.6-3-6.6-6.6 0-3.1 2.2-5.7 5.1-6.4v-10.1c0-7.2 5.9-13 13-13h20.2c7.2 0 13 5.9 13 13v10.1c2.9 0.7 5.1 3.3 5.1 6.4 0 3.7-3 6.6-6.6 6.6h-1.6c-1.1 6.2-5 11.5-10.4 14.4v4.7l10.9 3.8c6 2.1 13.8 6.4 13.9 19.5zm-18-40.5c0.6-1.6 0.9-3.4 0.9-5.3v-6.7h-34.6v6.7c0 1.8 0.4 3.6 0.9 5.3 2.9-4.1 11.4-4.7 16.4-4.7 5 0 13.5 0.6 16.4 4.7zm5.2-12.1h-1.3c0 0.2 0 7 0 7.2h1.3c2 0 3.6-1.6 3.6-3.6 0-2-1.6-3.6-3.6-3.6zm-41.7-2.9h40.3v-10c0-5.5-4.5-10-10-10h-20.3c-5.5 0-10 4.5-10 10zm-0.2 10.1v-7.2h-1.3c-2 0-3.6 1.6-3.6 3.6 0 2 1.6 3.6 3.6 3.6zm20.3 16.9c5.4 0 10.3-2.6 13.5-6.6 1.4-2.1 0.9-3.1 0.7-3.4-1.2-2.3-6.8-3.7-14.2-3.7-7.4 0-13 1.5-14.2 3.7-0.2 0.3-0.7 1.2 0.6 3.3 3.2 4 8.1 6.6 13.6 6.7zm-6.6 1.7v4.1l6.6 9.9 6.6-9.8v-4.1c-2.1 0.7-4.3 1.1-6.6 1.1q-3.4 0-6.6-1.2zm-24.7 35.3h25.2v-11.8c0-0.3 0.1-0.6 0.3-0.8l4-6-6.9-10.4-6.1 2.2v9.8c2.5 0.7 4.4 3 4.4 5.7 0 3.3-2.7 5.9-5.9 5.9-3.3 0-5.9-2.6-5.9-5.9 0-2.7 1.9-5 4.4-5.7v-8.7l-1.7 0.6c-5.5 1.9-11.8 5.5-11.8 16.6zm12-11.3c0 1.6 1.3 2.9 2.9 2.9 1.6 0 2.9-1.3 2.9-2.9 0-1.6-1.3-2.9-2.9-2.9-1.5 0-2.9 1.3-2.9 2.9zm50.6 2.8c0-11-6.3-14.7-11.8-16.6l-1.7-0.6v6.9c3.4 0.7 6 3.8 6 7.4v2c0 2.2-1.9 4-4.1 4-0.8 0-1.5-0.7-1.5-1.5 0-0.8 0.7-1.5 1.5-1.5 0.6 0 1.1-0.4 1.1-1v-2c0-2.5-2-4.5-4.5-4.5-2.5 0-4.5 2-4.5 4.5v2c0 0.5 0.4 1 1 1 0.8 0 1.5 0.7 1.5 1.5 0 0.8-0.7 1.5-1.5 1.5-2.2 0-4-1.8-4-4v-2c0-3.7 2.6-6.7 6-7.4v-8l-6.1-2.2-11.8 17.7v11.3h34.4z"/>
				<path class="s0" d="m46 20.1h2.5v2.5c0 0.8 0.7 1.5 1.5 1.5 0.8 0 1.5-0.7 1.5-1.5v-2.5h2.5c0.8 0 1.5-0.7 1.5-1.5 0-0.8-0.7-1.5-1.5-1.5h-2.5v-2.5c0-0.8-0.7-1.5-1.5-1.5-0.8 0-1.5 0.7-1.5 1.5v2.5h-2.5c-0.8 0-1.5 0.7-1.5 1.5 0 0.8 0.7 1.5 1.5 1.5z"/>
			</g>
		</g>
	</g>
</svg>