<svg version="1.2" xmlns="http://www.w3.org/2000/svg" viewBox="0 0 60 60" width="60" height="60">
	<title>medicina-svg</title>
	<style>
		.s0 { fill: #ffffff } 
	</style>
	<path fill-rule="evenodd" class="s0" d="m60 10.5c0.1 1-0.2 1.9-1 2.5q-1.8 1.4-4.5 1.1c-0.7 1.2-2.4 2.5-5.3 2-0.8 0.6-2.8 1.6-6 1-0.6 0.3-1.8 0.9-3.2 0.9-1.8 0-2.8-0.6-3.4-1h-2.8l-0.1 2q0.2 0 0.3 0h3c3.9 0 7 3.1 7 7 0 2.1-0.9 4-2.5 5.4q0.5 1.2 0.5 2.6c0 1.7-0.7 3.4-1.8 4.7 0.5 1 0.8 2.1 0.8 3.2 0 3.1-2.1 5.8-5 6.7q-0.2 0-0.4 0.1 1.4 1.9 1.4 4.3c0 1.7-1.3 3-3 3q-0.5 0-0.9-0.2l-0.1 1.2c0 1.7-1.4 3-3 3-1.6 0-3-1.3-3-3l-0.1-1.1q-0.4 0.1-0.9 0.1c-1.7 0-3-1.3-3-3q0-2.4 1.4-4.3-0.2-0.1-0.4-0.1c-2.9-0.9-5-3.6-5-6.7 0-1.1 0.3-2.2 0.8-3.2-1.1-1.3-1.8-3-1.8-4.7q0-1.4 0.5-2.6c-1.6-1.3-2.5-3.3-2.5-5.4 0-3.9 3.1-7 7-7h3q0.1 0 0.3 0l-0.1-2h-2.8c-0.5 0.4-1.6 1-3.4 1-1.4 0-2.6-0.6-3.2-0.9-3.1 0.6-5.2-0.4-6-1-2.9 0.5-4.6-0.8-5.3-2q-2.7 0.3-4.5-1.1c-0.8-0.6-1.1-1.5-0.9-2.5 0.1-0.9 0.8-1.6 1.7-1.9 1.3-0.3 2.9-1.1 4.5-1.8 2.9-1.4 5.9-2.8 8.7-2.8 4 0 5.7 2 7.3 3.9 1.1 1.2 2.1 2.4 3.8 2.9v-2.8c-0.7-0.8-1.1-1.9-1.1-3 0-2.8 2.2-5 5-5 2.8 0 5 2.2 5 5 0 1.1-0.4 2.2-1.1 3v2.8c1.7-0.5 2.7-1.7 3.8-3 1.6-1.8 3.3-3.8 7.3-3.8 2.8 0 5.8 1.4 8.7 2.8 1.6 0.7 3.2 1.5 4.5 1.8 0.9 0.3 1.6 1 1.8 1.9zm-42 15.5c0 1.7 0.9 3.3 2.3 4.2 0.8 0.5 1.7 0.8 2.7 0.8h12c1.7 0 3 1.3 3 3 0 0.7-0.2 1.3-0.6 1.8q0.8 0.5 1.6 1.2c0.6-0.8 1-1.9 1-3 0-2.8-2.2-5-5-5h-12c-1.7 0-3-1.3-3-3 0-1.7 1.3-3 3-3h3c0.6 0 1-0.4 1-1 0-0.6-0.4-1-1-1h-3c-2.8 0-5 2.2-5 5zm13.7-5.9l0.2-10.5q-0.9 0.4-1.9 0.4-1 0-1.9-0.4l0.2 10.5c0.4 0.5 0.7 1.2 0.7 1.9 0 0.7-0.3 1.3-0.7 1.8l0.1 3.2h3.2l0.1-3.2c-0.4-0.5-0.7-1.1-0.7-1.8 0-0.7 0.3-1.4 0.7-1.9zm-5.7 4.9h-3c-0.6 0-1 0.4-1 1 0 0.6 0.4 1 1 1h3.4v-2q-0.2 0-0.4 0zm1-20c0 1.7 1.3 3 3 3 1.7 0 3-1.3 3-3 0-1.7-1.3-3-3-3-1.7 0-3 1.3-3 3zm-0.8 10l-0.1-2.2c-2.6-0.5-4.1-2.2-5.3-3.7-1.5-1.6-2.7-3.1-5.8-3.1-2.4 0-5.2 1.3-7.9 2.6-1.7 0.8-3.3 1.5-4.8 2-0.2 0-0.3 0.2-0.3 0.3 0 0.1 0 0.4 0.2 0.5q1.3 1.1 3.6 0.6c0.5-0.1 1 0.2 1.2 0.7 0.1 0.2 0.8 2.1 3.8 1.3 0.3-0.1 0.7 0 0.9 0.3 0.1 0 1.7 1.6 5.1 0.7 0.3 0 0.6 0 0.8 0.2 0 0 1.1 0.8 2.4 0.8 1.6 0 2.3-0.7 2.3-0.7 0.2-0.2 0.4-0.3 0.7-0.3 0 0 3.2 0 3.2 0zm7.8 6c-0.6 0-1 0.4-1 1 0 0.6 0.4 1 1 1h3c1.7 0 3 1.3 3 3 0 0.9-0.4 1.7-1 2.2q0.8 0.6 1.4 1.4c1-0.9 1.6-2.2 1.6-3.6 0-2.8-2.2-5-5-5 0 0-3 0-3 0zm5 20.9c0-1-0.3-2-0.9-2.8-0.9-1.3-2.4-2.1-4-2.1h-9.1c-1.7 0-3-1.3-3-3q0-0.6 0.2-1.1-1-0.1-1.9-0.5-0.3 0.8-0.3 1.6c0 1.4 0.6 2.8 1.7 3.8 0.9 0.8 2.1 1.2 3.3 1.2h9.1c1.6 0 2.9 1.3 2.9 2.9 0 1.3-0.9 2.5-2.1 2.8q-0.9 0.2-1.6 0.5l-0.1 1.1q0.5 0.3 1 0.7 0.6-0.2 1.2-0.4c2.1-0.6 3.6-2.5 3.6-4.7zm-7.6-6.9l0.1-2h-3l0.1 2zm2 0h1.5c0.6 0 1-0.4 1-1 0-0.6-0.4-1-1-1h-1.5zm1.5 18q0-2.3-1.8-4.2-1.3-1.3-3.6-2.4-1.9-1-4.4-1.7c-1.3-0.3-2.2-1.5-2.2-2.8q0-0.6 0.3-1.1-1-0.3-1.9-0.8-0.4 0.9-0.4 1.9c0 2.2 1.5 4.1 3.6 4.7q1 0.3 1.9 0.6 2.5 0.9 4.1 2.1c2 1.4 2.4 2.8 2.4 3.7 0 0.6 0.5 1 1 1 0.6 0 1-0.4 1-1zm-3.9 4v-3.3q-0.1-0.3-0.1-0.7c0-0.6-0.5-1.4-1.5-2.1q-0.3-0.2-0.6-0.4l0.1 6.5c0 0.5 0.5 1 1 1 0.6 0 1.1-0.5 1.1-1zm-4.2-3.6v-3.9q-0.2-0.1-0.5-0.2c-0.9 1.2-1.4 2.4-1.4 3.7 0 0.6 0.5 1 1 1 0.4 0 0.8-0.2 0.9-0.6zm6.4-10.3q0.5-0.2 1.1-0.3c0.4-0.1 0.6-0.5 0.6-0.9 0-0.5-0.4-0.9-0.9-0.9h-0.7c0 0-0.1 2.1-0.1 2.1zm-1.9-2.1h-2.7l0.1 2.8q0.9 0.4 1.7 0.8 0.4 0.2 0.8 0.4c0 0 0.1-4 0.1-4zm-5.4 0c-0.5 0-1 0.4-1 0.9 0 0.4 0.3 0.8 0.7 0.9q0.5 0.1 1 0.3v-2.1zm-1.9-7c0 0.6 0.4 1 1 1h1.6l-0.1-2h-1.5c-0.6 0-1 0.4-1 1zm14-8c0-0.6-0.4-1-1-1h-3q-0.2 0-0.4 0v2h3.4c0.6 0 1-0.4 1-1zm20-15.1c0-0.1-0.1-0.3-0.3-0.3-1.5-0.5-3.1-1.2-4.8-2-2.7-1.3-5.5-2.6-7.9-2.6-3.1 0-4.3 1.5-5.8 3.1-1.2 1.5-2.7 3.2-5.3 3.7l-0.1 2.2h3.2c0.3 0 0.5 0.1 0.7 0.3 0 0 0.7 0.7 2.3 0.7 1.3 0 2.4-0.8 2.4-0.8 0.2-0.2 0.5-0.2 0.8-0.2 3.4 0.9 5-0.7 5.1-0.7 0.2-0.3 0.6-0.4 0.9-0.3 3 0.8 3.7-1.1 3.8-1.3 0.2-0.5 0.7-0.8 1.2-0.7q2.3 0.5 3.6-0.6c0.2-0.1 0.2-0.4 0.2-0.5z"/>
</svg>