<svg version="1.2" xmlns="http://www.w3.org/2000/svg" viewBox="0 0 512 512" width="512" height="512">
	<title>nutricion-svg</title>
	<style>
		.s0 { fill: #ffffff } 
	</style>
	<path class="s0" d="m293.4 151.2h-126.3c-4.1 0-7.5 3.4-7.5 7.5 0 4.2 3.4 7.5 7.5 7.5h126.3c4.1 0 7.5-3.3 7.5-7.5 0-4.1-3.4-7.5-7.5-7.5z"/>
	<path class="s0" d="m167.1 193.2h71c4.1 0 7.5-3.4 7.5-7.5 0-4.2-3.4-7.5-7.5-7.5h-71c-4.2 0-7.5 3.3-7.5 7.5 0 4.1 3.4 7.5 7.5 7.5z"/>
	<path class="s0" d="m129.3 148.1l-27.7 28.4-11.9-11.6c-3-2.9-7.8-2.9-10.7 0.1-2.9 3-2.8 7.7 0.2 10.6l17.3 16.9c3 2.9 7.8 2.8 10.6-0.1l32.9-33.8c2.9-2.9 2.9-7.7-0.1-10.6-3-2.9-7.7-2.8-10.6 0.1z"/>
	<path class="s0" d="m293.4 227.7h-126.3c-4.1 0-7.5 3.4-7.5 7.6 0 4.1 3.4 7.5 7.5 7.5h126.3c4.1 0 7.5-3.4 7.5-7.5 0-4.2-3.4-7.6-7.5-7.6z"/>
	<path class="s0" d="m238.1 254.7h-71c-4.2 0-7.5 3.4-7.5 7.5 0 4.2 3.4 7.5 7.5 7.5h71c4.1 0 7.5-3.3 7.5-7.5 0-4.1-3.4-7.5-7.5-7.5z"/>
	<path class="s0" d="m129.3 224.7l-27.7 28.3-11.9-11.6c-3-2.9-7.8-2.8-10.7 0.2-2.9 2.9-2.8 7.7 0.2 10.6l17.3 16.8c3 2.9 7.8 2.8 10.6-0.1l32.9-33.7c2.9-3 2.9-7.8-0.1-10.7-3-2.9-7.7-2.8-10.6 0.2z"/>
	<path class="s0" d="m129.3 301.2l-27.7 28.4-11.9-11.7c-3-2.9-7.8-2.8-10.7 0.2-2.9 3-2.8 7.7 0.2 10.6l17.3 16.9c3 2.8 7.8 2.8 10.6-0.2l32.9-33.7c2.9-3 2.9-7.7-0.1-10.6-3-2.9-7.7-2.9-10.6 0.1z"/>
	<path class="s0" d="m129.3 377.7l-27.7 28.4-11.9-11.6c-3-2.9-7.8-2.9-10.7 0.1-2.9 3-2.8 7.8 0.2 10.6l17.3 16.9c3 2.9 7.8 2.8 10.6-0.1l32.9-33.8c2.9-2.9 2.9-7.7-0.1-10.6-3-2.9-7.7-2.8-10.6 0.1z"/>
	<path fill-rule="evenodd" class="s0" d="m501.3 354.6c-1.5 24.3-6.3 47.7-14.4 69.5-1.5 4-6.1 6-10 4.3-3.7-1.5-5.5-5.8-4.1-9.5 7.6-20.4 12.1-42.4 13.5-65.2 1.7-26.8-7.1-61.9-57.7-79.8-6.7 5.5-14.3 9.1-21.9 11.5 3.7 3 3.7 8.8-0.1 11.7-0.6 0.5-16.2 12.6-39.5 12.6q0 0 0 0 0 0 0 0c-23.3 0-38.9-12.1-39.6-12.6-3.2-2.6-3.8-7.3-1.2-10.5 2.6-3.3 7.3-3.9 10.5-1.3 0.1 0.1 9.2 7 23.2 8.9 0-5.5-0.6-13.9-3.1-23.3q-0.8-3.2-1.9-6.3c-38.5 2.1-70.3 14-88.6 33.5-13.7 14.6-20 33.3-18.6 55.6 2.1 33.7 11.5 66.8 26.5 93.2 13.5 23.9 31 41.2 48.1 47.5 14.9 5.4 28.1 2.4 39.3-9.2 2.9-3 7.9-3 10.8 0 8.8 9.1 18.9 12.9 30.2 11.5 20.1-2.7 41.8-21.9 58.1-51.4 2-3.6 6.6-4.9 10.2-2.9 3.6 2 5 6.5 2.9 10.2-18.8 34.1-44.1 55.6-69.3 59q-3.3 0.4-6.6 0.4c-11.2 0-21.7-3.9-30.9-11.4-10.4 8.5-22.4 12.2-35.1 11.2h-294.6c-14.9 0-27-12.1-27-27v-416.3c0-14.9 12.1-27 27-27h70c3-7.5 10.4-12.8 18.9-12.8h24.9v-11c0-9.8 7.9-17.7 17.7-17.7h47.3c9.7 0 17.6 7.9 17.6 17.7v11h24.9c8.6 0 15.9 5.3 18.9 12.8h70c14.9 0 27 12.1 27 27v69.4c0 4.1-3.4 7.5-7.5 7.5-4.2 0-7.5-3.4-7.5-7.5v-69.4c0-6.6-5.4-11.9-12-11.9h-68.5v21h52.4c4.1 0 7.5 3.3 7.5 7.5v131.4c8.9 7.2 15.5 15.2 20.6 23.1v-71.6c0-4.2 3.3-7.6 7.5-7.6 4.1 0 7.5 3.4 7.5 7.6v52q1.7-2.1 3.6-4c23.7-23.7 65-19.2 66.8-19 3.4 0.4 6.1 3.1 6.5 6.6 0.2 1.5 3.8 34.4-12.1 58.4 42.7 17.1 64.6 49.6 61.9 92.6zm-380.3-270.2c0 2.9 2.4 5.3 5.3 5.3h132.4c2.9 0 5.3-2.4 5.3-5.3v-35.3c0-2.9-2.4-5.3-5.3-5.3h-32.4c-4.1 0-7.5-3.4-7.5-7.5v-18.6c0-1.5-1.2-2.7-2.6-2.7h-47.3c-1.5 0-2.7 1.2-2.7 2.7v18.6c0 4.1-3.4 7.5-7.5 7.5h-32.4c-2.9 0-5.3 2.4-5.3 5.3zm202.9 169v-29.4q-2.9-2-6.1-3.8c-3.5-2.1-4.8-6.7-2.7-10.3 1.8-3.1 5.5-4.4 8.8-3.4v-113.9h-46.6c-3.2 7.1-10.3 12.1-18.6 12.1h-132.4c-8.3 0-15.4-5-18.6-12.1h-46.6v180.8c0 4.2-3.4 7.5-7.5 7.5-4.2 0-7.5-3.3-7.5-7.5v-188.3c0-4.2 3.3-7.5 7.5-7.5h52.4v-21h-68.6c-6.6 0-11.9 5.3-11.9 11.9v416.3c0 6.6 5.3 12 11.9 12h259.1c-7.3-5.6-14.4-12.7-21-21h-221.9c-4.2 0-7.5-3.4-7.5-7.5v-164.8c0-4.2 3.3-7.6 7.5-7.6 4.1 0 7.5 3.4 7.5 7.6v157.2h203.9q-1.9-3.1-3.8-6.3c-5.6-9.9-10.4-20.5-14.4-31.6h-79.7c-4.1 0-7.5-3.3-7.5-7.5 0-4.1 3.4-7.5 7.5-7.5h74.8q-1.7-5.9-3.1-11.9h-71.7c-4.1 0-7.5-3.4-7.5-7.6 0-4.1 3.4-7.5 7.5-7.5h68.7q-2.2-12.9-3-26.2-0.2-4.2-0.2-8.3h-65.5c-4.1 0-7.5-3.4-7.5-7.5 0-4.2 3.4-7.5 7.5-7.5h66.8q1.1-6.2 2.9-12h-69.7c-4.1 0-7.5-3.3-7.5-7.5 0-4.1 3.4-7.5 7.5-7.5h76.2q4.9-8.8 12.1-16.5c15.7-16.7 39.7-28.5 68.5-34.4zm24.4-3.4q-4-6.9-9.3-12.8v13.8q4.6-0.6 9.3-1zm43.4 38.7c-6.1 0.9-11.6 1.1-16 1.1q-0.4 0-0.8 0 0.1 2.3 0.1 4.3c7-1.1 12.8-3.4 16.7-5.4zm30.2-29c13.8-13.7 15.2-37 15-48.1-11-0.2-34.3 1.2-48.1 15-13.8 13.8-15.2 37-15 48.2 11.1 0.1 34.4-1.3 48.1-15.1z"/>
</svg>