<svg version="1.2" xmlns="http://www.w3.org/2000/svg" viewBox="0 0 512 512" width="512" height="512">
	<title>ojo-svg</title>
	<style>
		.s0 { fill: #ffffff } 
	</style>
	<g>
		<g>
			<path class="s0" d="m203.1 258.9c-3.9-3.9-10.3-3.9-14.2 0-3.9 3.9-3.9 10.3 0 14.2 3.9 3.9 10.3 3.9 14.2 0 3.9-3.9 3.9-10.3 0-14.2z"/>
		</g>
	</g>
	<g>
		<g>
			<path fill-rule="evenodd" class="s0" d="m286 306c0 16.5-13.5 30-30 30-16.5 0-30-13.5-30-30 0-16.5 13.5-30 30-30 16.5 0 30 13.5 30 30zm-20 0c0-5.5-4.5-10-10-10-5.5 0-10 4.5-10 10 0 5.5 4.5 10 10 10 5.5 0 10-4.5 10-10z"/>
		</g>
	</g>
	<g>
		<g>
			<path class="s0" d="m256 226c-11.2 0-22 2.3-32.1 6.7-5.1 2.2-7.4 8.1-5.2 13.2 2.3 5.1 8.2 7.3 13.2 5.1 7.6-3.3 15.7-5 24.1-5 33.1 0 60 26.9 60 60 0 33.1-26.9 60-60 60-33.1 0-60-26.9-60-60q0-0.5 0-1c0.1-5.5-4.2-10.1-9.8-10.2-5.5-0.2-10.1 4.2-10.2 9.7q0 0.8 0 1.5c0 44.1 35.9 80 80 80 44.1 0 80-35.9 80-80 0-44.1-35.9-80-80-80z"/>
		</g>
	</g>
	<g>
		<g>
			<path class="s0" d="m256 76c-5.5 0-10 4.5-10 10v60c0 5.5 4.5 10 10 10 5.5 0 10-4.5 10-10v-60c0-5.5-4.5-10-10-10z"/>
		</g>
	</g>
	<g>
		<g>
			<path class="s0" d="m144.3 150.1l-42.4-42.4c-3.9-3.9-10.3-3.9-14.2 0-3.9 3.9-3.9 10.3 0 14.2l42.4 42.4c3.9 3.9 10.3 3.9 14.2 0 3.9-3.9 3.9-10.3 0-14.2z"/>
		</g>
	</g>
	<g>
		<g>
			<path class="s0" d="m424.3 107.7c-3.9-3.9-10.3-3.9-14.2 0l-42.4 42.4c-3.9 3.9-3.9 10.3 0 14.2 3.9 3.9 10.3 3.9 14.2 0l42.4-42.4c3.9-3.9 3.9-10.3 0-14.2z"/>
		</g>
	</g>
	<g>
		<g>
			<path fill-rule="evenodd" class="s0" d="m508.6 321.8c-4.1 3.7-10.5 3.3-14.1-0.8q-3.2-3.7-6.5-7.3c-49.4 74.7-139 122.3-232 122.3-93 0-182.6-47.6-232-122.3q-3.3 3.6-6.5 7.3c-3.7 4.1-10 4.5-14.1 0.8-4.2-3.6-4.6-9.9-0.9-14.1 63.5-71.9 157.8-131.7 253.5-131.7 95.6 0 190 59.8 253.5 131.7 3.7 4.1 3.3 10.5-0.9 14.1zm-34.9-22.8c-35.6-34.9-118-103-217.7-103-99.7 0-182.1 68.1-217.7 103 45.2 71.3 129.8 117 217.7 117 87.9 0 172.5-45.7 217.7-117z"/>
		</g>
	</g>
	<g>
	</g>
	<g>
	</g>
	<g>
	</g>
	<g>
	</g>
	<g>
	</g>
	<g>
	</g>
	<g>
	</g>
	<g>
	</g>
	<g>
	</g>
	<g>
	</g>
	<g>
	</g>
	<g>
	</g>
	<g>
	</g>
	<g>
	</g>
	<g>
	</g>
</svg>