<svg version="1.2" xmlns="http://www.w3.org/2000/svg" viewBox="0 0 513 513" width="513" height="513">
	<title>ortopedia-svg</title>
	<style>
		.s0 { fill: #ffffff } 
	</style>
	<g>
		<path class="s0" d="m154.2 119.6c1.5 1.4 3.4 2.2 5.3 2.2 1.9 0 3.9-0.8 5.3-2.2 3-3 3-7.7 0-10.6l-106.7-106.7c-2.9-2.9-7.6-2.9-10.6 0-2.9 2.9-2.9 7.7 0 10.6z"/>
		<path class="s0" d="m166.8 188.1c8.7 8.7 12.3 21.1 9.4 32.5-3.1 12 0.5 24.9 9.5 33.5 6.7 6.4 15.3 9.7 24 9.7 7.7 0 15.5-2.6 21.9-7.9 8.8-7.2 13.3-17.9 12.6-29 11.1 0.7 21.8-3.8 29-12.6 11.2-13.5 10.4-33.2-1.8-45.9-8.6-9-21.5-12.6-33.6-9.5-11.3 2.9-23.7-0.7-32.4-9.4l-19.4-19.4c-2.9-2.9-7.7-2.9-10.6 0-2.9 3-2.9 7.7 0 10.6l19.4 19.4c12.4 12.5 30.3 17.6 46.8 13.3 6.9-1.8 14.1 0.2 19 5.4 6.8 7.1 7.2 18.5 1 26-4.4 5.4-11.2 8-18.1 6.9-4-0.6-8.1 0.7-10.9 3.6-2.9 2.8-4.2 6.9-3.6 10.9 1.1 6.9-1.5 13.7-7 18.1-7.5 6.2-18.9 5.8-25.9-1-5.2-5-7.2-12.1-5.4-19 4.2-16.5-0.9-34.4-13.3-46.8l-164.4-164.4c-2.9-3-7.7-3-10.6 0-2.9 2.9-2.9 7.6 0 10.6z"/>
		<path class="s0" d="m356.5 226.4c-2.4-11.9-10.6-21.7-21.9-26.3-11.2-4.4-23.7-3-33.5 3.8l-0.6 0.5c-6 4.3-10.5 10.3-12.8 17.3-15.8 46.5-46.7 69.5-69.8 80.5-11.6 5.6-17.8 17.4-15.8 30.2 2 12.5 11.4 21.8 23.9 23.4 3 0.4 17.7 0.5 20.2 0.3 3.3-0.2 6.3 0.8 8.6 3 2.1 2 3.3 4.8 3.3 7.8v137.6c0 4.1 3.4 7.5 7.5 7.5 4.2 0 7.5-3.4 7.5-7.5v-137.6c0-7.2-2.8-13.9-8.1-18.8-5.3-4.9-12.5-7.5-19.8-7-2.2 0.2-15.2 0.1-17.2-0.1-7-1-10.3-6.3-11-11-0.8-4.8 0.7-11.1 7.3-14.2 25.8-12.3 60.1-37.8 77.6-89.3 1.3-4 3.9-7.5 7.4-10l0.4-0.3c5.7-4 12.7-4.8 19.3-2.1 6.6 2.6 11.4 8.4 12.8 15.3 5.3 26.1-6.2 54.7-29.3 72.9-6.3 4.9-9.9 12.3-9.9 20.3v181.9c0 4.1 3.4 7.5 7.5 7.5 4.1 0 7.5-3.4 7.5-7.5v-181.9c0-3.4 1.5-6.5 4.2-8.6 27.4-21.6 41.1-56 34.7-87.6z"/>
		<path class="s0" d="m196.9 387.5c-1-4.1-5-6.6-9-5.6-4.1 0.9-6.6 4.9-5.7 9 7.7 33.2 12.1 71.5 12.9 113.7 0 4.1 3.4 7.4 7.5 7.4q0 0 0.1 0c4.1-0.1 7.4-3.5 7.4-7.6-0.9-43.3-5.3-82.6-13.2-116.9z"/>
		<path class="s0" d="m189 358.8c-19-60.2-50.9-102.1-94.5-124.7-32.8-16.9-56.1-42.1-69.4-74.9-9.8-24.6-10.1-44.5-10.1-44.9 0-4.2-3.4-7.5-7.5-7.5-4.1 0-7.5 3.3-7.5 7.5 0 0.9 0.1 22.6 11 49.8 10 25.2 31.4 60 76.6 83.4 40 20.6 69.3 59.6 87.1 115.8 1.1 3.2 4 5.2 7.2 5.2q1.1 0 2.3-0.3c3.9-1.3 6.1-5.5 4.8-9.4z"/>
		<path fill-rule="evenodd" class="s0" d="m481.6 378.8v24.5c0 6.5-5.3 11.8-11.8 11.8h-15v15c0 6.5-5.3 11.8-11.8 11.8h-24.5c-6.5 0-11.8-5.3-11.8-11.8v-15h-15c-6.6 0-11.8-5.3-11.8-11.8v-24.5c0-6.5 5.2-11.8 11.8-11.8h15v-15c0-6.5 5.3-11.8 11.8-11.8h24.5c6.5 0 11.8 5.3 11.8 11.8v15h15c6.5 0 11.8 5.3 11.8 11.8zm-15 3.2h-15c-6.5 0-11.8-5.3-11.8-11.8v-15h-18.1v15c0 6.5-5.3 11.8-11.8 11.8h-15v18.1h15c6.5 0 11.8 5.3 11.8 11.8v15h18.1v-15c0-6.5 5.3-11.8 11.8-11.8h15z"/>
		<path class="s0" d="m430.7 309.8c-11.1 0-21.7 2.2-31.3 6.3v-49.2c0-44.3-11.7-88.1-33.8-126.6-22.1-38.5-54.1-70.6-92.4-93l-79.5-46.3c-3.5-2.1-8.1-0.9-10.2 2.7-2.1 3.6-0.9 8.2 2.7 10.3l79.4 46.3c36.1 21 66.2 51.3 87 87.5 20.8 36.2 31.8 77.4 31.8 119.1v57.4c-21.1 14.7-34.9 39.2-34.9 66.8 0 27.6 13.8 52 34.9 66.7v46.7c0 4.1 3.3 7.5 7.5 7.5 4.1 0 7.5-3.4 7.5-7.5v-38.5c9.6 4.1 20.2 6.3 31.3 6.3 13.8 0 27.4-3.5 39.4-10.1 3.6-2 4.9-6.6 2.9-10.2-2-3.7-6.6-5-10.2-3-9.8 5.5-20.9 8.3-32.1 8.3-36.5 0-66.2-29.7-66.2-66.2 0-36.6 29.7-66.3 66.2-66.3 36.6 0 66.3 29.7 66.3 66.3 0 14.7-4.7 28.6-13.7 40.3-2.5 3.3-1.9 8 1.4 10.5 3.2 2.5 7.9 1.9 10.5-1.3 11-14.4 16.8-31.5 16.8-49.5 0-44.9-36.5-81.3-81.3-81.3z"/>
	</g>
</svg>