<svg version="1.2" xmlns="http://www.w3.org/2000/svg" viewBox="0 0 230 230" width="230" height="230">
	<title>ortodoncia-svg</title>
	<defs>
		<clipPath clipPathUnits="userSpaceOnUse" id="cp1">
			<path d="m103 8.4c4.7 1.9 10.1 3.6 12 3.6 1.9 0 7.3-1.7 12-3.6 17.3-7.3 22-8.7 28.8-8.1 21.6 1.7 38.9 23.8 43.3 55.2l1.2 8.5h12.7c8.5 0 13 0.4 13.8 1.2 1.7 1.7 1.6 19.2-0.1 20.6-0.8 0.7-6.8 1.3-14.3 1.4l-12.9 0.3-0.3 3.5c-0.8 10.5-4.6 38.7-7.3 53.5-10 55.3-23.9 85.5-39.4 85.5-3.7 0-7.8-4.4-10.3-11.2-2-5.4-3.2-10.9-9.8-45.3-2.9-15.3-7.3-30.2-10.3-35.2-1.1-1.8-3.2-4-4.7-4.9-2.6-1.8-2.7-1.8-5.4 1.3-4.9 5.5-8.6 17.9-16.5 55.3-4.7 22.5-7.9 32.2-12 36.6-7.2 7.6-17.8 1.6-26-14.6-10.7-21.2-21.4-67.4-25.8-112l-1.2-12.5-13-0.3c-7.4-0.1-13.4-0.7-14.2-1.4-1.7-1.4-1.8-18.9-0.1-20.6 0.8-0.8 5.3-1.2 13.9-1.2h12.6l1.2-8.9c1.7-12.1 6.7-26.2 12.4-34.8 6.5-9.8 14-15.7 24.2-18.9 9-2.8 15.3-1.6 35.5 7zm-41.2 4.4c-9.8 6-18.5 20.9-21.8 37.3-3.2 15.3-4.3 14 11.8 13.7l13.7-0.3 1-19h97l1 19 13.9 0.3 13.8 0.3-0.7-5.8c-2-16.1-7.6-30-15.7-38.8-7.2-7.9-13.4-10.9-22.3-11-6.2 0-8.2 0.5-17.6 4.7-19.2 8.6-22.5 8.6-41.8 0.1-15.1-6.6-22.2-6.7-32.3-0.5zm94.7 38.7l-41.1-0.3c-22.6-0.1-41.3 0.1-41.7 0.5-0.4 0.3-0.7 4.8-0.7 10v9.3h12v-6.3c0-3.6 0.5-6.8 1.2-7.5 0.7-0.7 4.4-1.2 9.4-1.2 9.4 0 9.4 0 9.4 9.1v5.9h16v-5.9c0-9.1 0-9.1 9.4-9.1 5 0 8.7 0.5 9.4 1.2 0.7 0.7 1.2 3.9 1.2 7.5v6.3h16.1l-0.3-9.8zm-60.8 11.5c-2.4 0-2.7 1.2-2.7 12.7 0 10.6 0.1 11.3 2 11.3 1.9 0 2-0.7 2-12 0-9.3-0.3-12-1.3-12zm35.1 0.2c-1.6-0.3-1.8 0.8-1.8 11.7 0 11.5 0.1 12.1 2 12.1 2 0 2.1-0.5 1.8-11.7-0.3-10.3-0.5-11.8-2-12.1zm-65.3 8.3l-27.7-0.3-27.8-0.2v8h55.9l-0.2-3.8zm154.5-0.5h-27.4c-15.1 0-27.7 0.3-27.9 0.7-0.2 0.5-0.5 2.3-0.5 4l-0.1 3.3h55.9zm-135 8h-5.3c-3 0-5.7 0.3-6 0.7-0.4 0.3-0.7 4.8-0.7 10v9.3h84.1l-0.3-9.8-0.3-9.7-7.7-0.3-7.8-0.3v6.9c0 3.9-0.5 7.3-1.2 8-0.7 0.7-4.2 1.2-8.8 1.2-4.6 0-8.1-0.5-8.8-1.2-0.7-0.7-1.2-4-1.2-8v-6.8h-16v6.8c0 4-0.5 7.3-1.2 8-0.7 0.7-4.3 1.2-9 1.2-9.2 0-9.8-0.6-9.8-9.9zm-19.5 8.5l-13.1-0.3c-7.1-0.1-13.2 0-13.5 0.2-0.7 0.8 0.9 18.2 3.2 34.6 5.2 37.2 14.5 71.6 24 88.5 3.5 6.3 8.7 11.7 10.8 11.3 2.8-0.6 6.2-11.6 12.2-39.3 8.3-38.9 11.8-48.8 19-54.9 4.5-3.8 10.7-3.6 15.4 0.5 8.6 7.6 12 18 19.9 60.5 4 21.3 7 32.2 9.2 33.1 5.9 2.2 15.4-14.7 22.9-40.7 6.2-21.6 13.2-59.6 15-81.5 0.3-4.4 0.8-9 1.1-10.3l0.5-2.3-27.6 0.6-0.3 9c-0.2 5.6-0.7 9.2-1.5 9.7-1.6 1-93.8 1-95.4 0-0.8-0.5-1.3-4.1-1.5-9.7z"/>
		</clipPath>
	</defs>
	<style>
		.s0 { fill: #000000 } 
	</style>
	<g>
		<g clip-path="url(#cp1)">
			<path fill-rule="evenodd" class="s0" d="m103 8.4c4.7 1.9 10.1 3.6 12 3.6 1.9 0 7.3-1.7 12-3.6 17.3-7.3 22-8.7 28.8-8.1 21.6 1.7 38.9 23.8 43.3 55.2l1.2 8.5h12.7c8.5 0 13 0.4 13.8 1.2 1.7 1.7 1.6 19.2-0.1 20.6-0.8 0.7-6.8 1.3-14.3 1.4l-12.9 0.3-0.3 3.5c-0.8 10.5-4.6 38.7-7.3 53.5-10 55.3-23.9 85.5-39.4 85.5-3.7 0-7.8-4.4-10.3-11.2-2-5.4-3.2-10.9-9.8-45.3-2.9-15.3-7.3-30.2-10.3-35.2-1.1-1.8-3.2-4-4.7-4.9-2.6-1.8-2.7-1.8-5.4 1.3-4.9 5.5-8.6 17.9-16.5 55.3-4.7 22.5-7.9 32.2-12 36.6-7.2 7.6-17.8 1.6-26-14.6-10.7-21.2-21.4-67.4-25.8-112l-1.2-12.5-13-0.3c-7.4-0.1-13.4-0.7-14.2-1.4-1.7-1.4-1.8-18.9-0.1-20.6 0.8-0.8 5.3-1.2 13.9-1.2h12.6l1.2-8.9c1.7-12.1 6.7-26.2 12.4-34.8 6.5-9.8 14-15.7 24.2-18.9 9-2.8 15.3-1.6 35.5 7zm-41.2 4.4c-9.8 6-18.5 20.9-21.8 37.3-3.2 15.3-4.3 14 11.8 13.7l13.7-0.3 1-19h97l1 19 13.9 0.3 13.8 0.3-0.7-5.8c-2-16.1-7.6-30-15.7-38.8-7.2-7.9-13.4-10.9-22.3-11-6.2 0-8.2 0.5-17.6 4.7-19.2 8.6-22.5 8.6-41.8 0.1-15.1-6.6-22.2-6.7-32.3-0.5zm94.7 38.7l-41.1-0.3c-22.6-0.1-41.3 0.1-41.7 0.5-0.4 0.3-0.7 4.8-0.7 10v9.3h12v-6.3c0-3.6 0.5-6.8 1.2-7.5 0.7-0.7 4.4-1.2 9.4-1.2 9.4 0 9.4 0 9.4 9.1v5.9h16v-5.9c0-9.1 0-9.1 9.4-9.1 5 0 8.7 0.5 9.4 1.2 0.7 0.7 1.2 3.9 1.2 7.5v6.3h16.1l-0.3-9.8zm-60.8 11.5c-2.4 0-2.7 1.2-2.7 12.7 0 10.6 0.1 11.3 2 11.3 1.9 0 2-0.7 2-12 0-9.3-0.3-12-1.3-12zm35.1 0.2c-1.6-0.3-1.8 0.8-1.8 11.7 0 11.5 0.1 12.1 2 12.1 2 0 2.1-0.5 1.8-11.7-0.3-10.3-0.5-11.8-2-12.1zm-65.3 8.3l-27.7-0.3-27.8-0.2v8h55.9l-0.2-3.8zm154.5-0.5h-27.4c-15.1 0-27.7 0.3-27.9 0.7-0.2 0.5-0.5 2.3-0.5 4l-0.1 3.3h55.9zm-135 8h-5.3c-3 0-5.7 0.3-6 0.7-0.4 0.3-0.7 4.8-0.7 10v9.3h84.1l-0.3-9.8-0.3-9.7-7.7-0.3-7.8-0.3v6.9c0 3.9-0.5 7.3-1.2 8-0.7 0.7-4.2 1.2-8.8 1.2-4.6 0-8.1-0.5-8.8-1.2-0.7-0.7-1.2-4-1.2-8v-6.8h-16v6.8c0 4-0.5 7.3-1.2 8-0.7 0.7-4.3 1.2-9 1.2-9.2 0-9.8-0.6-9.8-9.9zm-19.5 8.5l-13.1-0.3c-7.1-0.1-13.2 0-13.5 0.2-0.7 0.8 0.9 18.2 3.2 34.6 5.2 37.2 14.5 71.6 24 88.5 3.5 6.3 8.7 11.7 10.8 11.3 2.8-0.6 6.2-11.6 12.2-39.3 8.3-38.9 11.8-48.8 19-54.9 4.5-3.8 10.7-3.6 15.4 0.5 8.6 7.6 12 18 19.9 60.5 4 21.3 7 32.2 9.2 33.1 5.9 2.2 15.4-14.7 22.9-40.7 6.2-21.6 13.2-59.6 15-81.5 0.3-4.4 0.8-9 1.1-10.3l0.5-2.3-27.6 0.6-0.3 9c-0.2 5.6-0.7 9.2-1.5 9.7-1.6 1-93.8 1-95.4 0-0.8-0.5-1.3-4.1-1.5-9.7z"/>
			<rect width="230" height="230" id="Relleno de color sólido 1" style="fill: #ffffff"/>
		</g>
	</g>
</svg>