<svg version="1.2" xmlns="http://www.w3.org/2000/svg" viewBox="0 0 593 593" width="593" height="593">
	<title>otorrino-svg</title>
	<style>
		.s0 { fill: #ffffff } 
	</style>
	<g>
		<path class="s0" d="m157.3 458.9c-15.2 0-30-5.3-41.6-15.2-11.6-9.8-19.4-23.4-22-38.3-2.5-15 0.3-30.5 8-43.6 7.7-13.1 19.8-23 34.2-28.1 1.7-0.6 3.4-1.6 4.9-2.7 1.5-1.2 2.8-2.6 3.9-4.1 1.1-1.6 1.9-3.3 2.5-5.1 0.5-1.8 0.8-3.7 0.8-5.6 0-2-0.4-3.9-1-5.8-0.6-1.9-1.6-3.7-2.7-5.3-1.2-1.6-2.7-3-4.3-4.2-1.7-1.1-3.5-2-5.4-2.6-3.6-1-7-2.5-10.2-4.4-3.3-1.9-6.2-4.2-8.9-6.9-2.6-2.6-4.9-5.6-6.8-8.8-1.9-3.2-3.4-6.7-4.5-10.3-1-3.6-1.7-7.4-1.8-11.2-0.1-3.8 0.2-7.7 1-11.4 0.8-3.7 2.1-7.3 3.8-10.7 1.7-3.5 3.9-6.6 6.4-9.5l8.2-9.5q2.1-2.4 3.7-5.1 1.6-2.7 2.7-5.6 1-3 1.6-6 0.6-3.1 0.6-6.2v-13.8c-0.1-21.8 6.1-43.1 17.8-61.4 11.8-18.2 28.5-32.8 48.3-41.7 19.8-9 41.8-12.1 63.3-8.9 21.5 3.2 41.6 12.6 57.9 27 5 4.4 9.6 9.3 13.8 14.5 4.2 5.3 7.9 10.9 11.1 16.8 3.2 5.9 5.9 12.1 8.1 18.4 2.1 6.4 3.7 12.9 4.7 19.6 0.6 3.9-0.4 8-2.8 11.2-2.3 3.2-5.9 5.4-9.8 6-4 0.6-8-0.5-11.2-2.8-3.2-2.4-5.4-6-5.9-10-6.1-41-41.4-71.9-82.2-71.9-10.9 0-21.7 2.1-31.8 6.3-10.1 4.2-19.3 10.3-27 18-7.7 7.7-13.8 16.9-18 27-4.2 10.1-6.3 20.9-6.3 31.8v13.8q0 5.9-1.1 11.6-1 5.7-3 11.1-2.1 5.5-5 10.5-3 5-6.8 9.4l-8.3 9.5q-1.3 1.5-2.1 3.3-0.9 1.8-1.4 3.7-0.4 1.9-0.3 3.9 0.1 2 0.6 3.9 0.6 1.8 1.5 3.4 1 1.6 2.3 2.9 1.3 1.3 2.9 2.3 1.6 0.9 3.4 1.5c9.8 2.9 18.5 8.8 24.8 16.9 6.2 8.1 9.8 18 10.1 28.3 0.3 10.2-2.7 20.3-8.4 28.8-5.8 8.4-14.1 14.9-23.8 18.4-7.6 2.7-14.1 8-18.2 15-4.1 7-5.6 15.2-4.2 23.2 1.3 8.1 5.5 15.3 11.7 20.6 6.2 5.2 14.1 8.1 22.2 8.1 4 0 7.8 1.6 10.6 4.4 2.8 2.8 4.4 6.6 4.4 10.6 0 4-1.6 7.8-4.4 10.6-2.8 2.8-6.6 4.4-10.6 4.4z"/>
		<path class="s0" d="m153 592.1c-15.1 0-30.1-3-44-8.8-14-5.8-26.6-14.3-37.3-24.9-10.7-10.7-19.2-23.4-24.9-37.3-5.8-14-8.8-28.9-8.8-44 0-4 1.6-7.8 4.4-10.6 2.8-2.8 6.6-4.4 10.6-4.4 3.9 0 7.8 1.6 10.6 4.4 2.8 2.8 4.4 6.6 4.4 10.6 0 11.1 2.2 22.2 6.5 32.5 4.2 10.3 10.5 19.7 18.4 27.6 7.9 7.9 17.2 14.1 27.6 18.4 10.3 4.3 21.3 6.5 32.5 6.5 33 0 62.4-19.7 78.6-52.7l40.7-82.6c1.8-3.6 4.9-6.3 8.7-7.5 3.7-1.3 7.8-1 11.4 0.7 3.5 1.8 6.3 4.9 7.6 8.6 1.2 3.8 1 7.9-0.7 11.4l-40.8 82.7c-21.1 42.8-61.5 69.4-105.5 69.4z"/>
		<path class="s0" d="m407.1 207.9h-0.6c-1.9-0.1-3.8-0.6-5.6-1.4-1.8-0.8-3.4-2-4.8-3.4-1.3-1.5-2.3-3.1-3-5-0.7-1.8-1-3.8-1-5.8 0.2-3.9 0.3-7.9 0.3-11.8 0-82.9-66.8-150.4-148.8-150.5h-0.1c-19.5 0-38.9 3.9-57 11.4-18 7.4-34.4 18.4-48.2 32.2-13.9 13.8-24.8 30.3-32.3 48.3-7.5 18.1-11.4 37.4-11.4 57 0 3.9-1.5 7.8-4.4 10.6-2.8 2.8-6.6 4.4-10.6 4.4-3.9 0-7.8-1.6-10.6-4.4-2.8-2.8-4.4-6.7-4.4-10.6 0-23.5 4.7-46.8 13.7-68.5 8.9-21.7 22.1-41.4 38.7-58 16.6-16.6 36.3-29.8 58-38.8 21.7-9 45-13.6 68.5-13.6h0.1c98.6 0 178.8 81 178.8 180.4 0 4.3-0.1 8.7-0.3 13-0.1 1.9-0.5 3.8-1.3 5.6-0.8 1.7-1.9 3.3-3.3 4.7-1.4 1.3-3 2.4-4.8 3.1-1.7 0.7-3.6 1.1-5.6 1.1z"/>
		<path fill-rule="evenodd" class="s0" d="m505.4 447.3h-95c-2 0-45.4-0.5-71.2-42.5l-122.7-28.6c-1.6-0.3-3.2-1-4.6-1.9-1.4-0.9-2.7-2-3.7-3.3-1.1-1.3-1.9-2.8-2.4-4.4-0.6-1.6-0.9-3.3-0.9-5v-41c0-1.6 0.3-3.3 0.9-4.9 0.5-1.6 1.3-3.1 2.4-4.4 1-1.3 2.3-2.4 3.7-3.3 1.4-0.9 3-1.6 4.6-2l122.7-28.5c25.8-42.1 69.2-42.6 71.2-42.6h95c6.5 0 12.9 1.3 18.9 3.8 6 2.5 11.4 6.1 16 10.7 4.6 4.5 8.2 10 10.7 16 2.5 5.9 3.7 12.3 3.7 18.8v113.8c0 6.5-1.2 12.9-3.7 18.9-2.5 6-6.1 11.4-10.7 16-4.6 4.6-10 8.2-16 10.7-6 2.5-12.4 3.7-18.9 3.7zm0-30c2.6 0 5.1-0.5 7.4-1.4 2.4-1 4.5-2.4 6.3-4.2 1.8-1.8 3.2-3.9 4.2-6.3 0.9-2.3 1.4-4.8 1.5-7.4v-113.8c-0.1-2.5-0.6-5-1.5-7.3-1-2.4-2.4-4.5-4.2-6.3-1.8-1.8-3.9-3.2-6.3-4.2-2.3-1-4.8-1.5-7.4-1.5h-95c-1.7 0-31.7 1.2-48.1 32.7q-0.7 1.4-1.8 2.6-1 1.3-2.3 2.3-1.3 1-2.7 1.7-1.5 0.7-3.1 1l-117.5 27.4v17.1l117.5 27.3q1.6 0.4 3.1 1.1 1.4 0.7 2.7 1.7 1.3 1 2.3 2.3 1.1 1.2 1.8 2.6c16.4 31.5 46.4 32.6 48.2 32.6z"/>
		<path class="s0" d="m399 592.1q-0.6 0-1.2 0c-1.9-0.2-3.8-0.7-5.6-1.6-1.8-0.9-3.3-2.1-4.6-3.6-1.3-1.5-2.3-3.3-2.9-5.1-0.6-1.9-0.8-3.9-0.7-5.9l11.4-144.7c0.3-3.9 2.2-7.6 5.2-10.2 3-2.6 7-3.9 10.9-3.5 4 0.3 7.7 2.1 10.3 5.2 2.6 3 3.8 6.9 3.5 10.9l-11.3 144.6c-0.2 1.9-0.7 3.7-1.5 5.4-0.8 1.7-1.9 3.2-3.3 4.5-1.4 1.3-3 2.3-4.7 2.9-1.8 0.7-3.6 1.1-5.5 1.1z"/>
		<path class="s0" d="m481.9 592.1c-1.9 0-3.8-0.4-5.6-1.1-1.8-0.7-3.4-1.8-4.8-3.1-1.4-1.3-2.5-2.9-3.3-4.7-0.8-1.7-1.2-3.6-1.3-5.5l-5.6-144.8c-0.1-1.9 0.2-3.9 0.9-5.7 0.6-1.9 1.7-3.6 3-5 1.4-1.5 3-2.7 4.8-3.5 1.8-0.8 3.7-1.3 5.7-1.4h0.6c1.9 0 3.8 0.4 5.6 1.1 1.8 0.7 3.4 1.8 4.8 3.1 1.4 1.4 2.5 2.9 3.3 4.7 0.8 1.8 1.2 3.6 1.3 5.6l5.7 144.7c0 1.9-0.3 3.9-1 5.7-0.7 1.9-1.7 3.6-3 5-1.4 1.5-3 2.7-4.8 3.5-1.7 0.8-3.7 1.3-5.6 1.3z"/>
		<path class="s0" d="m476.3 447.3c-2 0-4-0.3-5.8-1.1-1.8-0.8-3.5-1.9-4.8-3.3-1.4-1.3-2.5-3-3.3-4.8-0.8-1.8-1.1-3.8-1.1-5.8v-182.4c0-3.9 1.5-7.8 4.4-10.6 2.8-2.8 6.6-4.4 10.6-4.4 3.9 0 7.8 1.6 10.6 4.4 2.8 2.8 4.4 6.7 4.4 10.6v182.4c0 2-0.4 4-1.2 5.8-0.7 1.8-1.8 3.5-3.2 4.8-1.4 1.4-3.1 2.5-4.9 3.3-1.8 0.8-3.8 1.1-5.7 1.1z"/>
	</g>
</svg>