<svg version="1.2" xmlns="http://www.w3.org/2000/svg" viewBox="0 0 512 512" width="512" height="512">
	<title>psicologia-svg</title>
	<defs>
		<clipPath clipPathUnits="userSpaceOnUse" id="cp1">
			<path d="m512 0v30c-24.81 0-45 20.19-45 45v75c0 94.75-73.19 172.73-166 180.39v106.61c0 24.81 20.19 45 45 45v30h-180v-30c24.81 0 45-20.19 45-45v-106.61c-92.81-7.66-166-85.64-166-180.39v-75c0-24.81-20.19-45-45-45v-30h60c41.36 0 75 33.64 75 75v75c0 45.07 32.93 82.59 76 89.77v-164.77c0-24.81-20.19-45-45-45v-30h180v30c-24.81 0-45 20.19-45 45v164.77c43.07-7.18 76-44.7 76-89.77v-75c0-41.36 33.64-75 75-75zm-60 30c-24.81 0-45 20.19-45 45v75c0 66.72-54.28 121-121 121h-15v-196c0-16.87 5.6-32.46 15.04-45h-60.08c9.44 12.54 15.04 28.13 15.04 45v196h-15c-66.72 0-121-54.28-121-121v-75c0-24.81-20.19-45-45.04-45 9.44 12.54 15.04 28.13 15.04 45v75c0 83.26 67.74 151 151 151h15v136c0 16.87-5.6 32.46-15.04 45h60.08c-9.44-12.54-15.04-28.13-15.04-45v-136h15c83.26 0 151-67.74 151-151v-75c0-16.87 5.6-32.46 15-45z"/>
		</clipPath>
	</defs>
	<style>
		.s0 { fill: #000000 } 
	</style>
	<g clip-path="url(#cp1)">
		<path fill-rule="evenodd" class="s0" d="m512 0v30c-24.8 0-45 20.2-45 45v75c0 94.8-73.2 172.7-166 180.4v106.6c0 24.8 20.2 45 45 45v30h-180v-30c24.8 0 45-20.2 45-45v-106.6c-92.8-7.7-166-85.6-166-180.4v-75c0-24.8-20.2-45-45-45v-30h60c41.4 0 75 33.6 75 75v75c0 45.1 32.9 82.6 76 89.8v-164.8c0-24.8-20.2-45-45-45v-30h180v30c-24.8 0-45 20.2-45 45v164.8c43.1-7.2 76-44.7 76-89.8v-75c0-41.4 33.6-75 75-75zm-60 30c-24.8 0-45 20.2-45 45v75c0 66.7-54.3 121-121 121h-15v-196c0-16.9 5.6-32.5 15-45h-60c9.4 12.5 15 28.1 15 45v196h-15c-66.7 0-121-54.3-121-121v-75c0-24.8-20.2-45-45-45 9.4 12.5 15 28.1 15 45v75c0 83.3 67.7 151 151 151h15v136c0 16.9-5.6 32.5-15 45h60c-9.4-12.5-15-28.1-15-45v-136h15c83.3 0 151-67.7 151-151v-75c0-16.9 5.6-32.5 15-45z"/>
		<rect width="512" height="512" id="Relleno de color sólido 1" style="fill: #ffffff"/>
	</g>
</svg>