<svg version="1.2" xmlns="http://www.w3.org/2000/svg" viewBox="0 0 459 459" width="459" height="459">
	<title>rehabilitacion-svg</title>
	<style>
		.s0 { fill: #ffffff } 
	</style>
	<g>
		<g>
			<g>
				<path class="s0" d="m218.8 271.6c-23.9 0-44.1 0-44.1 0l15 52.4-29.8 85.2c-3.8 11 2 23.1 13 27 11.1 3.8 23.1-2 27-13l32-91.6c1.5-4.1 1.6-8.6 0.4-12.8z"/>
				<path class="s0" d="m274.8 271.6c-13.2 0-30.8 0-47.7 0l24.6 48.1-3.2 95.8c-0.4 11.7 8.8 21.5 20.5 21.8q0.3 0.1 0.7 0.1c11.3 0 20.7-9.1 21.1-20.5l3.4-101.2c0.1-3.6-0.7-7.2-2.3-10.3z"/>
				<path class="s0" d="m257.2 93.5c-20 0-36.1-16.1-36.1-36.2 0-20 16.1-36.1 36.1-36.1 20 0 36.2 16.1 36.2 36.1 0 20.1-16.2 36.2-36.2 36.2z"/>
				<path class="s0" d="m98.9 255.4h138.2l-30.3-14.7c-2.8-1.3-5.3-3-7.6-4.9h-100.3c-40.6 0-73.7 33-73.7 73.7v108.2c-8.1 0-7.4 0-15.4 0-5.4 0-9.8 4.4-9.8 9.8 0 5.5 4.4 9.9 9.8 9.9h50.4c5.4 0 9.8-4.4 9.8-9.9 0-5.4-4.4-9.8-9.8-9.8-8.1 0-7.4 0-15.4 0v-108.2c0-29.8 24.3-54.1 54.1-54.1z"/>
				<path class="s0" d="m294.4 224.2l-55.8-27-9.2-67.6 22.6 55 17.8 8.6 8.6-56.9c1.8-11.9-6.3-22.9-18.1-24.7l-48.6-7.4c-11.8-1.8-22.9 6.3-24.7 18.2l-14.8 97.2h16.4c-1.4-4.7-1.6-7.7-1.4-9.7l7-72.9 10.2 74.5c0.8 6 4.5 11.1 9.9 13.8 39.8 19.2 16.9 8.1 64.5 31.2 8.1 3.9 18.1 1.2 23-6.7 5.6-9.1 2.1-21-7.4-25.6z"/>
				<path class="s0" d="m448.7 417.7c-8.8 0-7.2 0-15.8 0v-108.2c0-40.7-33.1-73.7-73.7-73.7h-37.8c0.8 6.5-0.1 13.3-3.1 19.6h40.9c29.8 0 54.1 24.3 54.1 54.1v108.2c-9.4 0-11.5 0-11.8 0q-0.1 0-0.1 0c-0.2 0-1 0-3.1 0-5.4 0-9.8 4.4-9.8 9.8 0 5.5 4.4 9.9 9.8 9.9h50.4c5.4 0 9.8-4.4 9.8-9.9 0-5.4-4.4-9.8-9.8-9.8z"/>
			</g>
		</g>
	</g>
	<g>
	</g>
	<g>
	</g>
	<g>
	</g>
	<g>
	</g>
	<g>
	</g>
	<g>
	</g>
	<g>
	</g>
	<g>
	</g>
	<g>
	</g>
	<g>
	</g>
	<g>
	</g>
	<g>
	</g>
	<g>
	</g>
	<g>
	</g>
	<g>
	</g>
</svg>