<svg version="1.2" xmlns="http://www.w3.org/2000/svg" viewBox="0 0 496 496" width="496" height="496">
	<title>urologia-svg</title>
	<style>
		.s0 { fill: #ffffff } 
	</style>
	<g>
		<g>
			<g>
				<path fill-rule="evenodd" class="s0" d="m496 168c0 92.6-75.4 168-168 168-8.2 0-16.1-0.8-24-1.9v25.9c0 75-61 136-136 136-51.9 0-97.1-29.3-120-72.1v72.1h-16v-136c0-30.9 25.1-56 56-56h64v16h-24.9c10.4 10.2 16.9 24.3 16.9 40v8h-16v-8c0-22.1-17.9-40-40-40-22.1 0-40 17.9-40 40 0 66.2 53.8 120 120 120 66.2 0 120-53.8 120-120v-29c-73.4-18-128-84.2-128-163 0-53.2 25-100.7 63.7-131.5-21.5-13.4-46.2-20.5-71.7-20.5-75 0-136 61-136 136v16c0 17.6 14.4 32 32 32h8c17.6 0 32-14.4 32-32h16c0 12.3-4.7 23.5-12.3 32h60.3v16h-96c-22.1 0-40 17.9-40 40v240h-16v-240c0-19.2 9.7-36.1 24.4-46.2-14.5-8.3-24.4-23.9-24.4-41.8v-16c0-83.8 68.2-152 152-152 30.2 0 59.4 8.8 84.4 25.6l-2 3c26.8-18.1 59-28.6 93.6-28.6 92.6 0 168 75.4 168 168zm-16 0c0-83.8-68.2-152-152-152-83.8 0-152 68.2-152 152 0 83.8 68.2 152 152 152 83.8 0 152-68.2 152-152z"/>
				<path fill-rule="evenodd" class="s0" d="m464 168c0 75-61 136-136 136-75 0-136-61-136-136 0-75 61-136 136-136 75 0 136 61 136 136zm-16 0c0-66.2-53.8-120-120-120-66.2 0-120 53.8-120 120 0 66.2 53.8 120 120 120 66.2 0 120-53.8 120-120z"/>
				<path fill-rule="evenodd" class="s0" d="m304 208c0 17.6-14.4 32-32 32-17.6 0-32-14.4-32-32 0-17.6 14.4-32 32-32 17.6 0 32 14.4 32 32zm-16 0c0-8.8-7.2-16-16-16-8.8 0-16 7.2-16 16 0 8.8 7.2 16 16 16 8.8 0 16-7.2 16-16z"/>
				<path fill-rule="evenodd" class="s0" d="m336 160c-13.2 0-24-10.8-24-24 0-13.2 10.8-24 24-24 13.2 0 24 10.8 24 24 0 13.2-10.8 24-24 24zm8-24c0-4.4-3.6-8-8-8-4.4 0-8 3.6-8 8 0 4.4 3.6 8 8 8 4.4 0 8-3.6 8-8z"/>
				<path fill-rule="evenodd" class="s0" d="m416 208c0 17.6-14.4 32-32 32-17.6 0-32-14.4-32-32 0-17.6 14.4-32 32-32 17.6 0 32 14.4 32 32zm-16 0c0-8.8-7.2-16-16-16-8.8 0-16 7.2-16 16 0 8.8 7.2 16 16 16 8.8 0 16-7.2 16-16z"/>
				<path fill-rule="evenodd" class="s0" d="m424 120c0 13.2-10.8 24-24 24-13.2 0-24-10.8-24-24 0-13.2 10.8-24 24-24 13.2 0 24 10.8 24 24zm-16 0c0-4.4-3.6-8-8-8-4.4 0-8 3.6-8 8 0 4.4 3.6 8 8 8 4.4 0 8-3.6 8-8z"/>
				<path fill-rule="evenodd" class="s0" d="m312 104c0 17.6-14.4 32-32 32-17.6 0-32-14.4-32-32 0-17.6 14.4-32 32-32 17.6 0 32 14.4 32 32zm-16 0c0-8.8-7.2-16-16-16-8.8 0-16 7.2-16 16 0 8.8 7.2 16 16 16 8.8 0 16-7.2 16-16z"/>
				<path fill-rule="evenodd" class="s0" d="m328 288c-13.2 0-24-10.8-24-24 0-13.2 10.8-24 24-24 13.2 0 24 10.8 24 24 0 13.2-10.8 24-24 24zm8-24c0-4.4-3.6-8-8-8-4.4 0-8 3.6-8 8 0 4.4 3.6 8 8 8 4.4 0 8-3.6 8-8z"/>
			</g>
		</g>
	</g>
	<g>
	</g>
	<g>
	</g>
	<g>
	</g>
	<g>
	</g>
	<g>
	</g>
	<g>
	</g>
	<g>
	</g>
	<g>
	</g>
	<g>
	</g>
	<g>
	</g>
	<g>
	</g>
	<g>
	</g>
	<g>
	</g>
	<g>
	</g>
	<g>
	</g>
</svg>